<?xml version="1.0" encoding="UTF-8" standalone="no"?>
<!DOCTYPE svg PUBLIC "-//W3C//DTD SVG 1.1//EN"
 "http://www.w3.org/Graphics/SVG/1.1/DTD/svg11.dtd">
<!-- Generated by graphviz version 2.42.4 (0)
 -->
<!-- Title: model_graph Pages: 1 -->
<svg width="3475pt" height="291pt"
 viewBox="0.00 0.00 3474.56 291.00" xmlns="http://www.w3.org/2000/svg" xmlns:xlink="http://www.w3.org/1999/xlink">
<g id="graph0" class="graph" transform="scale(1 1) rotate(0) translate(4 287)">
<title>model_graph</title>
<polygon fill="white" stroke="transparent" points="-4,4 -4,-287 3470.56,-287 3470.56,4 -4,4"/>
<!-- digitmileapi_models_Teacher -->
<g id="node1" class="node">
<title>digitmileapi_models_Teacher</title>
<polygon fill="white" stroke="transparent" points="1601.56,-6.5 1601.56,-29.5 1697.56,-29.5 1697.56,-6.5 1601.56,-6.5"/>
<polygon fill="#1b563f" stroke="transparent" points="1602.56,-7 1602.56,-28 1696.56,-28 1696.56,-7 1602.56,-7"/>
<text text-anchor="start" x="1607.56" y="-16" font-family="Roboto" font-size="8.00"> &#160;&#160;&#160;</text>
<text text-anchor="start" x="1617.56" y="-16" font-family="Roboto" font-weight="bold" font-size="10.00" fill="white"> &#160;&#160;&#160;Teacher &#160;&#160;&#160;</text>
<polygon fill="none" stroke="black" points="1601.56,-6.5 1601.56,-29.5 1697.56,-29.5 1697.56,-6.5 1601.56,-6.5"/>
</g>
<!-- digitmileapi_models_Classroom -->
<g id="node2" class="node">
<title>digitmileapi_models_Classroom</title>
<polygon fill="white" stroke="transparent" points="1684.56,-87.5 1684.56,-110.5 1796.56,-110.5 1796.56,-87.5 1684.56,-87.5"/>
<polygon fill="#1b563f" stroke="transparent" points="1685.56,-88 1685.56,-109 1795.56,-109 1795.56,-88 1685.56,-88"/>
<text text-anchor="start" x="1690.56" y="-97" font-family="Roboto" font-size="8.00"> &#160;&#160;&#160;</text>
<text text-anchor="start" x="1700.56" y="-97" font-family="Roboto" font-weight="bold" font-size="10.00" fill="white"> &#160;&#160;&#160;Classroom &#160;&#160;&#160;</text>
<polygon fill="none" stroke="black" points="1684.56,-87.5 1684.56,-110.5 1796.56,-110.5 1796.56,-87.5 1684.56,-87.5"/>
</g>
<!-- digitmileapi_models_Classroom&#45;&gt;digitmileapi_models_Teacher -->
<g id="edge1" class="edge">
<title>digitmileapi_models_Classroom&#45;&gt;digitmileapi_models_Teacher</title>
<path fill="none" stroke="black" d="M1714.46,-75.34C1700.07,-62.85 1682.5,-47.59 1669.27,-36.11"/>
<ellipse fill="black" stroke="black" cx="1717.79" cy="-78.24" rx="4" ry="4"/>
<text text-anchor="middle" x="1742.06" y="-56.6" font-family="Roboto" font-size="8.00"> teacher (classrooms)</text>
</g>
<!-- digitmileapi_models_Student -->
<g id="node3" class="node">
<title>digitmileapi_models_Student</title>
<polygon fill="white" stroke="transparent" points="1643.56,-168.5 1643.56,-191.5 1741.56,-191.5 1741.56,-168.5 1643.56,-168.5"/>
<polygon fill="#1b563f" stroke="transparent" points="1644.56,-169 1644.56,-190 1740.56,-190 1740.56,-169 1644.56,-169"/>
<text text-anchor="start" x="1650.06" y="-178" font-family="Roboto" font-size="8.00"> &#160;&#160;&#160;</text>
<text text-anchor="start" x="1660.06" y="-178" font-family="Roboto" font-weight="bold" font-size="10.00" fill="white"> &#160;&#160;&#160;Student &#160;&#160;&#160;</text>
<polygon fill="none" stroke="black" points="1643.56,-168.5 1643.56,-191.5 1741.56,-191.5 1741.56,-168.5 1643.56,-168.5"/>
</g>
<!-- digitmileapi_models_Student&#45;&gt;digitmileapi_models_Classroom -->
<g id="edge2" class="edge">
<title>digitmileapi_models_Student&#45;&gt;digitmileapi_models_Classroom</title>
<path fill="none" stroke="black" d="M1710.93,-155.43C1713.6,-151.68 1716.23,-147.79 1718.56,-144 1723.84,-135.42 1728.93,-125.4 1732.88,-117.09"/>
<ellipse fill="black" stroke="black" cx="1708.51" cy="-158.75" rx="4" ry="4"/>
<text text-anchor="middle" x="1767.06" y="-137.6" font-family="Roboto" font-size="8.00"> classroom (students)</text>
</g>
<!-- digitmileapi_models_StudentWeekHotspotStats -->
<g id="node4" class="node">
<title>digitmileapi_models_StudentWeekHotspotStats</title>
<polygon fill="white" stroke="transparent" points="304.56,-247 304.56,-279 490.56,-279 490.56,-247 304.56,-247"/>
<polygon fill="#1b563f" stroke="transparent" points="305.56,-248 305.56,-278 489.56,-278 489.56,-248 305.56,-248"/>
<text text-anchor="start" x="310.56" y="-266" font-family="Roboto" font-size="8.00"> &#160;&#160;&#160;</text>
<text text-anchor="start" x="320.56" y="-266" font-family="Roboto" font-weight="bold" font-size="10.00" fill="white"> &#160;&#160;&#160;StudentWeekHotspotStats</text>
<text text-anchor="start" x="329.56" y="-256" font-family="Roboto" font-weight="bold" font-size="10.00" fill="white">&lt;</text>
<text text-anchor="start" x="338.56" y="-256" font-family="Roboto" font-weight="bold" font-style="italic" font-size="10.00" fill="white">StudentWeekBase</text>
<text text-anchor="start" x="441.56" y="-256" font-family="Roboto" font-weight="bold" font-size="10.00" fill="white">&gt; &#160;&#160;&#160;</text>
<polygon fill="none" stroke="black" points="304.56,-247 304.56,-279 490.56,-279 490.56,-247 304.56,-247"/>
</g>
<!-- digitmileapi_models_StudentWeekHotspotStats&#45;&gt;digitmileapi_models_Teacher -->
<g id="edge5" class="edge">
<title>digitmileapi_models_StudentWeekHotspotStats&#45;&gt;digitmileapi_models_Teacher</title>
<path fill="none" stroke="black" d="M288.3,-261.49C151.08,-256.8 -58.01,-233.89 15.56,-135 129.04,17.52 245.93,-67.38 435.56,-54 881.2,-22.56 1420.75,-19.19 1593.51,-18.96"/>
<ellipse fill="black" stroke="black" cx="292.41" cy="-261.62" rx="4" ry="4"/>
<text text-anchor="middle" x="89.56" y="-137.6" font-family="Roboto" font-size="8.00"> teacher (studentweekhotspotstats)</text>
</g>
<!-- digitmileapi_models_StudentWeekHotspotStats&#45;&gt;digitmileapi_models_Classroom -->
<g id="edge4" class="edge">
<title>digitmileapi_models_StudentWeekHotspotStats&#45;&gt;digitmileapi_models_Classroom</title>
<path fill="none" stroke="black" d="M425.18,-237.44C453.66,-213.69 500.45,-178.88 547.56,-162 575.84,-151.87 786.59,-137.07 816.56,-135 1139.06,-112.73 1525.94,-103.84 1676.36,-101.06"/>
<ellipse fill="black" stroke="black" cx="422.1" cy="-240.05" rx="4" ry="4"/>
<text text-anchor="middle" x="626.56" y="-178.1" font-family="Roboto" font-size="8.00"> classroom (studentweekhotspotstats)</text>
</g>
<!-- digitmileapi_models_StudentWeekHotspotStats&#45;&gt;digitmileapi_models_Student -->
<g id="edge3" class="edge">
<title>digitmileapi_models_StudentWeekHotspotStats&#45;&gt;digitmileapi_models_Student</title>
<path fill="none" stroke="black" d="M506.75,-243.11C507.02,-243.07 507.29,-243.03 507.56,-243 880.11,-194.9 976.25,-213.73 1351.56,-198 1451.5,-193.81 1567.85,-187.76 1635.56,-184.12"/>
<ellipse fill="black" stroke="black" cx="502.77" cy="-243.64" rx="4" ry="4"/>
<text text-anchor="middle" x="842.56" y="-218.6" font-family="Roboto" font-size="8.00"> student (studentweekhotspotstats)</text>
</g>
<!-- digitmileapi_models_StudentWeekSpecialTileStats -->
<g id="node5" class="node">
<title>digitmileapi_models_StudentWeekSpecialTileStats</title>
<polygon fill="white" stroke="transparent" points="524.56,-247 524.56,-279 730.56,-279 730.56,-247 524.56,-247"/>
<polygon fill="#1b563f" stroke="transparent" points="525.56,-248 525.56,-278 729.56,-278 729.56,-248 525.56,-248"/>
<text text-anchor="start" x="531.06" y="-266" font-family="Roboto" font-size="8.00"> &#160;&#160;&#160;</text>
<text text-anchor="start" x="541.06" y="-266" font-family="Roboto" font-weight="bold" font-size="10.00" fill="white"> &#160;&#160;&#160;StudentWeekSpecialTileStats</text>
<text text-anchor="start" x="559.56" y="-256" font-family="Roboto" font-weight="bold" font-size="10.00" fill="white">&lt;</text>
<text text-anchor="start" x="568.56" y="-256" font-family="Roboto" font-weight="bold" font-style="italic" font-size="10.00" fill="white">StudentWeekBase</text>
<text text-anchor="start" x="671.56" y="-256" font-family="Roboto" font-weight="bold" font-size="10.00" fill="white">&gt; &#160;&#160;&#160;</text>
<polygon fill="none" stroke="black" points="524.56,-247 524.56,-279 730.56,-279 730.56,-247 524.56,-247"/>
</g>
<!-- digitmileapi_models_StudentWeekSpecialTileStats&#45;&gt;digitmileapi_models_Teacher -->
<g id="edge8" class="edge">
<title>digitmileapi_models_StudentWeekSpecialTileStats&#45;&gt;digitmileapi_models_Teacher</title>
<path fill="none" stroke="black" d="M508.39,-243.11C508.11,-243.07 507.84,-243.04 507.56,-243 352.45,-222.71 78.01,-259.63 172.56,-135 259.96,-19.8 1333.49,-17.48 1593.25,-18.62"/>
<ellipse fill="black" stroke="black" cx="512.48" cy="-243.66" rx="4" ry="4"/>
<text text-anchor="middle" x="251.56" y="-137.6" font-family="Roboto" font-size="8.00"> teacher (studentweekspecialtilestats)</text>
</g>
<!-- digitmileapi_models_StudentWeekSpecialTileStats&#45;&gt;digitmileapi_models_Classroom -->
<g id="edge7" class="edge">
<title>digitmileapi_models_StudentWeekSpecialTileStats&#45;&gt;digitmileapi_models_Classroom</title>
<path fill="none" stroke="black" d="M661.21,-237.91C676.5,-226.43 694.48,-212.14 709.56,-198 725.17,-183.35 722.46,-171.67 741.56,-162 824.64,-119.92 1469.12,-104.84 1676.5,-101.05"/>
<ellipse fill="black" stroke="black" cx="657.61" cy="-240.59" rx="4" ry="4"/>
<text text-anchor="middle" x="826.06" y="-178.1" font-family="Roboto" font-size="8.00"> classroom (studentweekspecialtilestats)</text>
</g>
<!-- digitmileapi_models_StudentWeekSpecialTileStats&#45;&gt;digitmileapi_models_Student -->
<g id="edge6" class="edge">
<title>digitmileapi_models_StudentWeekSpecialTileStats&#45;&gt;digitmileapi_models_Student</title>
<path fill="none" stroke="black" d="M746.74,-243.1C747.01,-243.07 747.29,-243.03 747.56,-243 847.62,-231.11 876.21,-250.99 973.56,-225 982.59,-222.59 983.5,-218.28 992.56,-216 993.05,-215.88 1468.27,-192.18 1635.32,-183.85"/>
<ellipse fill="black" stroke="black" cx="742.63" cy="-243.61" rx="4" ry="4"/>
<text text-anchor="middle" x="1071.56" y="-218.6" font-family="Roboto" font-size="8.00"> student (studentweekspecialtilestats)</text>
</g>
<!-- digitmileapi_models_StudentWeekChainLengthStats -->
<g id="node6" class="node">
<title>digitmileapi_models_StudentWeekChainLengthStats</title>
<polygon fill="white" stroke="transparent" points="1030.56,-247 1030.56,-279 1242.56,-279 1242.56,-247 1030.56,-247"/>
<polygon fill="#1b563f" stroke="transparent" points="1031.56,-248 1031.56,-278 1241.56,-278 1241.56,-248 1031.56,-248"/>
<text text-anchor="start" x="1036.56" y="-266" font-family="Roboto" font-size="8.00"> &#160;&#160;&#160;</text>
<text text-anchor="start" x="1046.56" y="-266" font-family="Roboto" font-weight="bold" font-size="10.00" fill="white"> &#160;&#160;&#160;StudentWeekChainLengthStats</text>
<text text-anchor="start" x="1068.56" y="-256" font-family="Roboto" font-weight="bold" font-size="10.00" fill="white">&lt;</text>
<text text-anchor="start" x="1077.56" y="-256" font-family="Roboto" font-weight="bold" font-style="italic" font-size="10.00" fill="white">StudentWeekBase</text>
<text text-anchor="start" x="1180.56" y="-256" font-family="Roboto" font-weight="bold" font-size="10.00" fill="white">&gt; &#160;&#160;&#160;</text>
<polygon fill="none" stroke="black" points="1030.56,-247 1030.56,-279 1242.56,-279 1242.56,-247 1030.56,-247"/>
</g>
<!-- digitmileapi_models_StudentWeekChainLengthStats&#45;&gt;digitmileapi_models_Teacher -->
<g id="edge11" class="edge">
<title>digitmileapi_models_StudentWeekChainLengthStats&#45;&gt;digitmileapi_models_Teacher</title>
<path fill="none" stroke="black" d="M1014.38,-243.1C1014.1,-243.06 1013.83,-243.03 1013.56,-243 958.39,-236.44 552.93,-239.11 515.56,-198 504.8,-186.16 511.12,-177.37 515.56,-162 519.49,-148.38 520.52,-142.49 532.56,-135 712.53,-23.13 1392.23,-17.6 1593.24,-18.48"/>
<ellipse fill="black" stroke="black" cx="1018.38" cy="-243.59" rx="4" ry="4"/>
<text text-anchor="middle" x="615.06" y="-137.6" font-family="Roboto" font-size="8.00"> teacher (studentweekchainlengthstats)</text>
</g>
<!-- digitmileapi_models_StudentWeekChainLengthStats&#45;&gt;digitmileapi_models_Classroom -->
<g id="edge10" class="edge">
<title>digitmileapi_models_StudentWeekChainLengthStats&#45;&gt;digitmileapi_models_Classroom</title>
<path fill="none" stroke="black" d="M1014.38,-243.1C1014.1,-243.07 1013.83,-243.03 1013.56,-243 967.29,-237.43 773.5,-249.83 805.56,-216 831.2,-188.94 1103.5,-202.01 1140.56,-198 1193.26,-192.3 1532.68,-135.21 1676.41,-110.88"/>
<ellipse fill="black" stroke="black" cx="1018.38" cy="-243.6" rx="4" ry="4"/>
<text text-anchor="middle" x="1450.06" y="-178.1" font-family="Roboto" font-size="8.00"> classroom (studentweekchainlengthstats)</text>
</g>
<!-- digitmileapi_models_StudentWeekChainLengthStats&#45;&gt;digitmileapi_models_Student -->
<g id="edge9" class="edge">
<title>digitmileapi_models_StudentWeekChainLengthStats&#45;&gt;digitmileapi_models_Student</title>
<path fill="none" stroke="black" d="M1255.58,-241.65C1305.81,-233.3 1364.98,-223.79 1418.56,-216 1493.42,-205.12 1580.07,-194.36 1635.54,-187.7"/>
<ellipse fill="black" stroke="black" cx="1251.54" cy="-242.32" rx="4" ry="4"/>
<text text-anchor="middle" x="1501.06" y="-218.6" font-family="Roboto" font-size="8.00"> student (studentweekchainlengthstats)</text>
</g>
<!-- digitmileapi_models_StudentWeekCardFamilyStats -->
<g id="node7" class="node">
<title>digitmileapi_models_StudentWeekCardFamilyStats</title>
<polygon fill="white" stroke="transparent" points="1488.56,-247 1488.56,-279 1694.56,-279 1694.56,-247 1488.56,-247"/>
<polygon fill="#1b563f" stroke="transparent" points="1489.56,-248 1489.56,-278 1693.56,-278 1693.56,-248 1489.56,-248"/>
<text text-anchor="start" x="1494.56" y="-266" font-family="Roboto" font-size="8.00"> &#160;&#160;&#160;</text>
<text text-anchor="start" x="1504.56" y="-266" font-family="Roboto" font-weight="bold" font-size="10.00" fill="white"> &#160;&#160;&#160;StudentWeekCardFamilyStats</text>
<text text-anchor="start" x="1523.56" y="-256" font-family="Roboto" font-weight="bold" font-size="10.00" fill="white">&lt;</text>
<text text-anchor="start" x="1532.56" y="-256" font-family="Roboto" font-weight="bold" font-style="italic" font-size="10.00" fill="white">StudentWeekBase</text>
<text text-anchor="start" x="1635.56" y="-256" font-family="Roboto" font-weight="bold" font-size="10.00" fill="white">&gt; &#160;&#160;&#160;</text>
<polygon fill="none" stroke="black" points="1488.56,-247 1488.56,-279 1694.56,-279 1694.56,-247 1488.56,-247"/>
</g>
<!-- digitmileapi_models_StudentWeekCardFamilyStats&#45;&gt;digitmileapi_models_Teacher -->
<g id="edge14" class="edge">
<title>digitmileapi_models_StudentWeekCardFamilyStats&#45;&gt;digitmileapi_models_Teacher</title>
<path fill="none" stroke="black" d="M1574.56,-235.6C1560.09,-209.7 1543.44,-169.21 1555.56,-135 1570.1,-93.95 1606.04,-56.82 1629.03,-36.15"/>
<ellipse fill="black" stroke="black" cx="1576.74" cy="-239.37" rx="4" ry="4"/>
<text text-anchor="middle" x="1635.06" y="-137.6" font-family="Roboto" font-size="8.00"> teacher (studentweekcardfamilystats)</text>
</g>
<!-- digitmileapi_models_StudentWeekCardFamilyStats&#45;&gt;digitmileapi_models_Classroom -->
<g id="edge13" class="edge">
<title>digitmileapi_models_StudentWeekCardFamilyStats&#45;&gt;digitmileapi_models_Classroom</title>
<path fill="none" stroke="black" d="M1711.16,-256.49C1918.49,-246.86 2322.95,-227.75 2325.56,-225 2328.32,-222.1 2328.33,-218.89 2325.56,-216 2294.11,-183.14 1960.01,-211.48 1916.56,-198 1866.03,-182.32 1862.06,-160.23 1815.56,-135 1804.07,-128.76 1791.27,-122.54 1779.55,-117.1"/>
<ellipse fill="black" stroke="black" cx="1706.95" cy="-256.68" rx="4" ry="4"/>
<text text-anchor="middle" x="2001.06" y="-178.1" font-family="Roboto" font-size="8.00"> classroom (studentweekcardfamilystats)</text>
</g>
<!-- digitmileapi_models_StudentWeekCardFamilyStats&#45;&gt;digitmileapi_models_Student -->
<g id="edge12" class="edge">
<title>digitmileapi_models_StudentWeekCardFamilyStats&#45;&gt;digitmileapi_models_Student</title>
<path fill="none" stroke="black" d="M1586.98,-234.71C1587.19,-228.08 1588.67,-221.36 1592.56,-216 1602.72,-202.01 1618.9,-193.57 1635.31,-188.5"/>
<ellipse fill="black" stroke="black" cx="1587.14" cy="-238.96" rx="4" ry="4"/>
<text text-anchor="middle" x="1672.06" y="-218.6" font-family="Roboto" font-size="8.00"> student (studentweekcardfamilystats)</text>
</g>
<!-- digitmileapi_models_StudentWeekCardTypeStats -->
<g id="node8" class="node">
<title>digitmileapi_models_StudentWeekCardTypeStats</title>
<polygon fill="white" stroke="transparent" points="2535.56,-247 2535.56,-279 2731.56,-279 2731.56,-247 2535.56,-247"/>
<polygon fill="#1b563f" stroke="transparent" points="2536.56,-248 2536.56,-278 2730.56,-278 2730.56,-248 2536.56,-248"/>
<text text-anchor="start" x="2541.56" y="-266" font-family="Roboto" font-size="8.00"> &#160;&#160;&#160;</text>
<text text-anchor="start" x="2551.56" y="-266" font-family="Roboto" font-weight="bold" font-size="10.00" fill="white"> &#160;&#160;&#160;StudentWeekCardTypeStats</text>
<text text-anchor="start" x="2565.56" y="-256" font-family="Roboto" font-weight="bold" font-size="10.00" fill="white">&lt;</text>
<text text-anchor="start" x="2574.56" y="-256" font-family="Roboto" font-weight="bold" font-style="italic" font-size="10.00" fill="white">StudentWeekBase</text>
<text text-anchor="start" x="2677.56" y="-256" font-family="Roboto" font-weight="bold" font-size="10.00" fill="white">&gt; &#160;&#160;&#160;</text>
<polygon fill="none" stroke="black" points="2535.56,-247 2535.56,-279 2731.56,-279 2731.56,-247 2535.56,-247"/>
</g>
<!-- digitmileapi_models_StudentWeekCardTypeStats&#45;&gt;digitmileapi_models_Teacher -->
<g id="edge17" class="edge">
<title>digitmileapi_models_StudentWeekCardTypeStats&#45;&gt;digitmileapi_models_Teacher</title>
<path fill="none" stroke="black" d="M2747.89,-252.92C2858.71,-239.69 3001.86,-208.14 2941.56,-135 2861.83,-38.29 1943.69,-22.06 1705.65,-19.47"/>
<ellipse fill="black" stroke="black" cx="2743.61" cy="-253.41" rx="4" ry="4"/>
<text text-anchor="middle" x="3022.56" y="-137.6" font-family="Roboto" font-size="8.00"> teacher (studentweekcardtypestats)</text>
</g>
<!-- digitmileapi_models_StudentWeekCardTypeStats&#45;&gt;digitmileapi_models_Classroom -->
<g id="edge16" class="edge">
<title>digitmileapi_models_StudentWeekCardTypeStats&#45;&gt;digitmileapi_models_Classroom</title>
<path fill="none" stroke="black" d="M2571.54,-238.9C2565.31,-234.91 2559.48,-230.3 2554.56,-225 2534.17,-203.04 2554.38,-180.17 2530.56,-162 2473.37,-118.38 1982.44,-104.65 1804.57,-101.09"/>
<ellipse fill="black" stroke="black" cx="2575" cy="-240.95" rx="4" ry="4"/>
<text text-anchor="middle" x="2625.06" y="-178.1" font-family="Roboto" font-size="8.00"> classroom (studentweekcardtypestats)</text>
</g>
<!-- digitmileapi_models_StudentWeekCardTypeStats&#45;&gt;digitmileapi_models_Student -->
<g id="edge15" class="edge">
<title>digitmileapi_models_StudentWeekCardTypeStats&#45;&gt;digitmileapi_models_Student</title>
<path fill="none" stroke="black" d="M2519.38,-243.1C2519.11,-243.07 2518.83,-243.03 2518.56,-243 2236.29,-209.4 2163.95,-220.26 1880.56,-198 1836.62,-194.55 1786.95,-190.03 1749.71,-186.52"/>
<ellipse fill="black" stroke="black" cx="2523.44" cy="-243.61" rx="4" ry="4"/>
<text text-anchor="middle" x="2409.56" y="-218.6" font-family="Roboto" font-size="8.00"> student (studentweekcardtypestats)</text>
</g>
<!-- digitmileapi_models_StudentWeekConditionalStats -->
<g id="node9" class="node">
<title>digitmileapi_models_StudentWeekConditionalStats</title>
<polygon fill="white" stroke="transparent" points="3043.56,-247 3043.56,-279 3249.56,-279 3249.56,-247 3043.56,-247"/>
<polygon fill="#1b563f" stroke="transparent" points="3044.56,-248 3044.56,-278 3248.56,-278 3248.56,-248 3044.56,-248"/>
<text text-anchor="start" x="3049.56" y="-266" font-family="Roboto" font-size="8.00"> &#160;&#160;&#160;</text>
<text text-anchor="start" x="3059.56" y="-266" font-family="Roboto" font-weight="bold" font-size="10.00" fill="white"> &#160;&#160;&#160;StudentWeekConditionalStats</text>
<text text-anchor="start" x="3078.56" y="-256" font-family="Roboto" font-weight="bold" font-size="10.00" fill="white">&lt;</text>
<text text-anchor="start" x="3087.56" y="-256" font-family="Roboto" font-weight="bold" font-style="italic" font-size="10.00" fill="white">StudentWeekBase</text>
<text text-anchor="start" x="3190.56" y="-256" font-family="Roboto" font-weight="bold" font-size="10.00" fill="white">&gt; &#160;&#160;&#160;</text>
<polygon fill="none" stroke="black" points="3043.56,-247 3043.56,-279 3249.56,-279 3249.56,-247 3043.56,-247"/>
</g>
<!-- digitmileapi_models_StudentWeekConditionalStats&#45;&gt;digitmileapi_models_Teacher -->
<g id="edge20" class="edge">
<title>digitmileapi_models_StudentWeekConditionalStats&#45;&gt;digitmileapi_models_Teacher</title>
<path fill="none" stroke="black" d="M3253.85,-240.8C3310.29,-224.8 3361.88,-199.18 3330.56,-162 3223.53,-34.95 1985.94,-20.78 1705.73,-19.2"/>
<ellipse fill="black" stroke="black" cx="3249.72" cy="-241.93" rx="4" ry="4"/>
<text text-anchor="middle" x="3385.56" y="-137.6" font-family="Roboto" font-size="8.00"> teacher (studentweekconditionalstats)</text>
</g>
<!-- digitmileapi_models_StudentWeekConditionalStats&#45;&gt;digitmileapi_models_Classroom -->
<g id="edge19" class="edge">
<title>digitmileapi_models_StudentWeekConditionalStats&#45;&gt;digitmileapi_models_Classroom</title>
<path fill="none" stroke="black" d="M3152.75,-234.51C3157.54,-205.22 3159.47,-159.72 3132.56,-135 3107.81,-112.26 2074.56,-102.61 1804.56,-100.47"/>
<ellipse fill="black" stroke="black" cx="3151.99" cy="-238.74" rx="4" ry="4"/>
<text text-anchor="middle" x="3240.56" y="-178.1" font-family="Roboto" font-size="8.00"> classroom (studentweekconditionalstats)</text>
</g>
<!-- digitmileapi_models_StudentWeekConditionalStats&#45;&gt;digitmileapi_models_Student -->
<g id="edge18" class="edge">
<title>digitmileapi_models_StudentWeekConditionalStats&#45;&gt;digitmileapi_models_Student</title>
<path fill="none" stroke="black" d="M3027.19,-252.19C2895.6,-241.71 2677.62,-225.36 2489.56,-216 2219.11,-202.54 2150.86,-214.2 1880.56,-198 1836.56,-195.36 1786.9,-190.8 1749.67,-187.07"/>
<ellipse fill="black" stroke="black" cx="3031.35" cy="-252.52" rx="4" ry="4"/>
<text text-anchor="middle" x="2714.56" y="-218.6" font-family="Roboto" font-size="8.00"> student (studentweekconditionalstats)</text>
</g>
<!-- digitmileapi_models_StudentWeekBackCardUsageStats -->
<g id="node10" class="node">
<title>digitmileapi_models_StudentWeekBackCardUsageStats</title>
<polygon fill="white" stroke="transparent" points="764.56,-247 764.56,-279 996.56,-279 996.56,-247 764.56,-247"/>
<polygon fill="#1b563f" stroke="transparent" points="765.56,-248 765.56,-278 995.56,-278 995.56,-248 765.56,-248"/>
<text text-anchor="start" x="771.06" y="-266" font-family="Roboto" font-size="8.00"> &#160;&#160;&#160;</text>
<text text-anchor="start" x="781.06" y="-266" font-family="Roboto" font-weight="bold" font-size="10.00" fill="white"> &#160;&#160;&#160;StudentWeekBackCardUsageStats</text>
<text text-anchor="start" x="812.56" y="-256" font-family="Roboto" font-weight="bold" font-size="10.00" fill="white">&lt;</text>
<text text-anchor="start" x="821.56" y="-256" font-family="Roboto" font-weight="bold" font-style="italic" font-size="10.00" fill="white">StudentWeekBase</text>
<text text-anchor="start" x="924.56" y="-256" font-family="Roboto" font-weight="bold" font-size="10.00" fill="white">&gt; &#160;&#160;&#160;</text>
<polygon fill="none" stroke="black" points="764.56,-247 764.56,-279 996.56,-279 996.56,-247 764.56,-247"/>
</g>
<!-- digitmileapi_models_StudentWeekBackCardUsageStats&#45;&gt;digitmileapi_models_Teacher -->
<g id="edge23" class="edge">
<title>digitmileapi_models_StudentWeekBackCardUsageStats&#45;&gt;digitmileapi_models_Teacher</title>
<path fill="none" stroke="black" d="M748.38,-243.1C748.1,-243.07 747.83,-243.03 747.56,-243 561.32,-220.65 223.06,-282.02 339.56,-135 418.57,-35.29 1352.93,-21.27 1593.41,-19.32"/>
<ellipse fill="black" stroke="black" cx="752.37" cy="-243.59" rx="4" ry="4"/>
<text text-anchor="middle" x="429.06" y="-137.6" font-family="Roboto" font-size="8.00"> teacher (studentweekbackcardusagestats)</text>
</g>
<!-- digitmileapi_models_StudentWeekBackCardUsageStats&#45;&gt;digitmileapi_models_Classroom -->
<g id="edge22" class="edge">
<title>digitmileapi_models_StudentWeekBackCardUsageStats&#45;&gt;digitmileapi_models_Classroom</title>
<path fill="none" stroke="black" d="M802.14,-238.42C793.96,-232.24 791.03,-224.79 798.56,-216 832.51,-176.38 868.75,-222.97 914.56,-198 933.36,-187.75 927.39,-171.52 946.56,-162 1011.22,-129.88 1498.95,-108.9 1676.32,-102.26"/>
<ellipse fill="black" stroke="black" cx="805.94" cy="-240.78" rx="4" ry="4"/>
<text text-anchor="middle" x="1041.56" y="-178.1" font-family="Roboto" font-size="8.00"> classroom (studentweekbackcardusagestats)</text>
</g>
<!-- digitmileapi_models_StudentWeekBackCardUsageStats&#45;&gt;digitmileapi_models_Student -->
<g id="edge21" class="edge">
<title>digitmileapi_models_StudentWeekBackCardUsageStats&#45;&gt;digitmileapi_models_Student</title>
<path fill="none" stroke="black" d="M1012.75,-243.11C1013.02,-243.07 1013.29,-243.04 1013.56,-243 1076.17,-234.53 1092.97,-239.06 1154.56,-225 1166.89,-222.19 1169.15,-218.45 1181.56,-216 1225.07,-207.4 1511.1,-190.95 1635.23,-184.11"/>
<ellipse fill="black" stroke="black" cx="1008.76" cy="-243.65" rx="4" ry="4"/>
<text text-anchor="middle" x="1271.06" y="-218.6" font-family="Roboto" font-size="8.00"> student (studentweekbackcardusagestats)</text>
</g>
<!-- digitmileapi_models_StudentWeekForeachContextStats -->
<g id="node11" class="node">
<title>digitmileapi_models_StudentWeekForeachContextStats</title>
<polygon fill="white" stroke="transparent" points="2013.56,-247 2013.56,-279 2243.56,-279 2243.56,-247 2013.56,-247"/>
<polygon fill="#1b563f" stroke="transparent" points="2014.56,-248 2014.56,-278 2242.56,-278 2242.56,-248 2014.56,-248"/>
<text text-anchor="start" x="2019.56" y="-266" font-family="Roboto" font-size="8.00"> &#160;&#160;&#160;</text>
<text text-anchor="start" x="2029.56" y="-266" font-family="Roboto" font-weight="bold" font-size="10.00" fill="white"> &#160;&#160;&#160;StudentWeekForeachContextStats</text>
<text text-anchor="start" x="2060.56" y="-256" font-family="Roboto" font-weight="bold" font-size="10.00" fill="white">&lt;</text>
<text text-anchor="start" x="2069.56" y="-256" font-family="Roboto" font-weight="bold" font-style="italic" font-size="10.00" fill="white">StudentWeekBase</text>
<text text-anchor="start" x="2172.56" y="-256" font-family="Roboto" font-weight="bold" font-size="10.00" fill="white">&gt; &#160;&#160;&#160;</text>
<polygon fill="none" stroke="black" points="2013.56,-247 2013.56,-279 2243.56,-279 2243.56,-247 2013.56,-247"/>
</g>
<!-- digitmileapi_models_StudentWeekForeachContextStats&#45;&gt;digitmileapi_models_Teacher -->
<g id="edge26" class="edge">
<title>digitmileapi_models_StudentWeekForeachContextStats&#45;&gt;digitmileapi_models_Teacher</title>
<path fill="none" stroke="black" d="M2260.02,-243.05C2260.2,-243.03 2260.38,-243.02 2260.56,-243 2286.92,-240.61 2718.21,-244.06 2736.56,-225 2739.34,-222.12 2737.45,-219.9 2736.56,-216 2730.63,-190.03 2732.12,-177.65 2710.56,-162 2709.27,-161.06 1924.84,-55.89 1705.78,-26.53"/>
<ellipse fill="black" stroke="black" cx="2255.81" cy="-243.46" rx="4" ry="4"/>
<text text-anchor="middle" x="2663.56" y="-137.6" font-family="Roboto" font-size="8.00"> teacher (studentweekforeachcontextstats)</text>
</g>
<!-- digitmileapi_models_StudentWeekForeachContextStats&#45;&gt;digitmileapi_models_Classroom -->
<g id="edge25" class="edge">
<title>digitmileapi_models_StudentWeekForeachContextStats&#45;&gt;digitmileapi_models_Classroom</title>
<path fill="none" stroke="black" d="M2259.83,-242.44C2301.35,-235.62 2337.41,-228.74 2340.56,-225 2343.13,-221.94 2343.27,-218.94 2340.56,-216 2307.48,-180.09 2165.87,-218.52 2121.56,-198 2101.03,-188.49 2105.61,-172.48 2085.56,-162 1995.76,-115.07 1876.83,-102.96 1804.65,-100.23"/>
<ellipse fill="black" stroke="black" cx="2255.69" cy="-243.11" rx="4" ry="4"/>
<text text-anchor="middle" x="2215.56" y="-178.1" font-family="Roboto" font-size="8.00"> classroom (studentweekforeachcontextstats)</text>
</g>
<!-- digitmileapi_models_StudentWeekForeachContextStats&#45;&gt;digitmileapi_models_Student -->
<g id="edge24" class="edge">
<title>digitmileapi_models_StudentWeekForeachContextStats&#45;&gt;digitmileapi_models_Student</title>
<path fill="none" stroke="black" d="M1997.21,-260.35C1929.46,-256.49 1846.22,-247.03 1774.56,-225 1763.83,-221.7 1740.58,-209.01 1721.56,-198.1"/>
<ellipse fill="black" stroke="black" cx="2001.4" cy="-260.57" rx="4" ry="4"/>
<text text-anchor="middle" x="1863.56" y="-218.6" font-family="Roboto" font-size="8.00"> student (studentweekforeachcontextstats)</text>
</g>
<!-- digitmileapi_models_StudentWeekNumberChoiceStats -->
<g id="node12" class="node">
<title>digitmileapi_models_StudentWeekNumberChoiceStats</title>
<polygon fill="white" stroke="transparent" points="2277.56,-247 2277.56,-279 2501.56,-279 2501.56,-247 2277.56,-247"/>
<polygon fill="#1b563f" stroke="transparent" points="2278.56,-248 2278.56,-278 2500.56,-278 2500.56,-248 2278.56,-248"/>
<text text-anchor="start" x="2283.56" y="-266" font-family="Roboto" font-size="8.00"> &#160;&#160;&#160;</text>
<text text-anchor="start" x="2293.56" y="-266" font-family="Roboto" font-weight="bold" font-size="10.00" fill="white"> &#160;&#160;&#160;StudentWeekNumberChoiceStats</text>
<text text-anchor="start" x="2321.56" y="-256" font-family="Roboto" font-weight="bold" font-size="10.00" fill="white">&lt;</text>
<text text-anchor="start" x="2330.56" y="-256" font-family="Roboto" font-weight="bold" font-style="italic" font-size="10.00" fill="white">StudentWeekBase</text>
<text text-anchor="start" x="2433.56" y="-256" font-family="Roboto" font-weight="bold" font-size="10.00" fill="white">&gt; &#160;&#160;&#160;</text>
<polygon fill="none" stroke="black" points="2277.56,-247 2277.56,-279 2501.56,-279 2501.56,-247 2277.56,-247"/>
</g>
<!-- digitmileapi_models_StudentWeekNumberChoiceStats&#45;&gt;digitmileapi_models_Teacher -->
<g id="edge29" class="edge">
<title>digitmileapi_models_StudentWeekNumberChoiceStats&#45;&gt;digitmileapi_models_Teacher</title>
<path fill="none" stroke="black" d="M2517.74,-243.09C2518.01,-243.06 2518.29,-243.03 2518.56,-243 2544.25,-240.11 2732.31,-243.31 2750.56,-225 2778.86,-196.6 2783.34,-164.84 2756.56,-135 2685.66,-55.99 1920.79,-27.15 1705.6,-20.57"/>
<ellipse fill="black" stroke="black" cx="2513.67" cy="-243.57" rx="4" ry="4"/>
<text text-anchor="middle" x="2850.06" y="-137.6" font-family="Roboto" font-size="8.00"> teacher (studentweeknumberchoicestats)</text>
</g>
<!-- digitmileapi_models_StudentWeekNumberChoiceStats&#45;&gt;digitmileapi_models_Classroom -->
<g id="edge28" class="edge">
<title>digitmileapi_models_StudentWeekNumberChoiceStats&#45;&gt;digitmileapi_models_Classroom</title>
<path fill="none" stroke="black" d="M2372.32,-236.03C2354.05,-209.38 2325.66,-170.63 2309.56,-162 2223.63,-115.91 1935.06,-104.05 1805.04,-101.02"/>
<ellipse fill="black" stroke="black" cx="2374.71" cy="-239.55" rx="4" ry="4"/>
<text text-anchor="middle" x="2436.06" y="-178.1" font-family="Roboto" font-size="8.00"> classroom (studentweeknumberchoicestats)</text>
</g>
<!-- digitmileapi_models_StudentWeekNumberChoiceStats&#45;&gt;digitmileapi_models_Student -->
<g id="edge27" class="edge">
<title>digitmileapi_models_StudentWeekNumberChoiceStats&#45;&gt;digitmileapi_models_Student</title>
<path fill="none" stroke="black" d="M2261.39,-243.09C2261.11,-243.06 2260.84,-243.03 2260.56,-243 2134.34,-229.74 2099.48,-252.45 1975.56,-225 1964.84,-222.63 1963.19,-218.75 1952.56,-216 1884,-198.24 1802.8,-189.15 1749.61,-184.74"/>
<ellipse fill="black" stroke="black" cx="2265.46" cy="-243.54" rx="4" ry="4"/>
<text text-anchor="middle" x="2063.06" y="-218.6" font-family="Roboto" font-size="8.00"> student (studentweeknumberchoicestats)</text>
</g>
</g>
</svg>
